<?xml version="1.0" encoding="iso-8859-1"?>
<!-- Generator: Adobe Illustrator 18.1.1, SVG Export Plug-In . SVG Version: 6.00 Build 0)  -->
<svg version="1.1" id="Capa_1" xmlns="http://www.w3.org/2000/svg" xmlns:xlink="http://www.w3.org/1999/xlink" x="0px" y="0px"
	 viewBox="0 0 509 509" style="enable-background:new 0 0 509 509;" xml:space="preserve">
<g>
	<g>
		<g>
			<polygon style="fill:#010002;" points="413.5,113 413.5,111 411.5,113 			"/>
			<path style="fill:#010002;" d="M90.5,141.5c16.667,15.667,36.667,23.5,60,23.5c17.333,0,33.167-5.167,47.5-15.5
				s24.833-23.5,31.5-39.5h28l20-21l21,21h13l20-21l20,21h13l21-21l20,21h8v1l38-38l-38-35h-194c-19.333-25.333-42.333-38-69-38
				c-23.333,0-43.333,8-60,24s-25,35.667-25,59S73.833,125.833,90.5,141.5z M105.5,63.5c4.667-5,10.5-7.5,17.5-7.5
				s12.833,2.5,17.5,7.5s7,10.833,7,17.5s-2.333,12.5-7,17.5S130,106,123,106s-12.833-2.5-17.5-7.5s-7-10.833-7-17.5
				S100.833,68.5,105.5,63.5z"/>
			<path style="fill:#010002;" d="M448.5,310c-4-4-9-6-15-6h-5l-63-114c-3.333-6-8.333-9-15-9h-191c-7.334,0-12.667,3-16,9l-62,114
				h-6c-6,0-11,2-15,6s-6,9-6,15v102c0,6,2,11,6,15s9,6,15,6h20v30c0,8.667,3,16,9,22s13.333,9,22,9h10c8.667,0,16-3,22-9
				s9-13.333,9-22v-30h174v30c0,8.667,3,16,9,22s13.333,9,22,9h10c8.667,0,16-3,22-9s9-13.333,9-22v-30h20c6,0,11-2,15-6s6-9,6-15
				V325C454.5,319,452.5,314,448.5,310z M129,378.5c-5,5-11,7.5-18,7.5s-13-2.5-18-7.5s-7.5-11-7.5-18s2.5-13,7.5-18s11-7.5,18-7.5
				s13,2.5,18,7.5s7.5,11,7.5,18S134,373.5,129,378.5z M131.5,304l42-83c2.667-6,7.667-9,15-9h133c6.667,0,11.333,3,14,9l42,83
				H131.5z M416,378.5c-5,5-11,7.5-18,7.5s-13-2.5-18-7.5s-7.5-11-7.5-18s2.5-13,7.5-18s11-7.5,18-7.5s13,2.5,18,7.5s7.5,11,7.5,18
				S421,373.5,416,378.5z"/>
		</g>
	</g>
</g>
<g>
</g>
<g>
</g>
<g>
</g>
<g>
</g>
<g>
</g>
<g>
</g>
<g>
</g>
<g>
</g>
<g>
</g>
<g>
</g>
<g>
</g>
<g>
</g>
<g>
</g>
<g>
</g>
<g>
</g>
</svg>
